<svg xmlns="http://www.w3.org/2000/svg" xmlns:xlink="http://www.w3.org/1999/xlink" viewBox="0 0 43.38 25.72"><defs><style>.cls-1{fill:url(#Dégradé_sans_nom_10);}</style><linearGradient id="Dégradé_sans_nom_10" x1="5.12" y1="5.54" x2="38.83" y2="20.44" gradientUnits="userSpaceOnUse"><stop offset="0" stop-color="#fd5f02"/><stop offset="1" stop-color="#c932c2"/></linearGradient></defs><g id="Calque_2" data-name="Calque 2"><g id="Calque_1-2" data-name="Calque 1"><path class="cls-1" d="M41.74,25.72H14a1.63,1.63,0,0,1-1.63-1.64V16.62A1.63,1.63,0,0,1,14,15H41.74a1.63,1.63,0,0,1,1.64,1.64v7.46A1.63,1.63,0,0,1,41.74,25.72ZM29.35,0H1.65A1.65,1.65,0,0,0,0,1.65V9.08a1.65,1.65,0,0,0,1.65,1.65h27.7A1.64,1.64,0,0,0,31,9.08V1.65A1.64,1.64,0,0,0,29.35,0Z"/></g></g></svg>